<svg xmlns="http://www.w3.org/2000/svg" width="762" height="706"><g fill="none" stroke="#b3b3b3" stroke-width="2"><path d="m466 79.04-.44.38a1.28.67 79 0 0-.27.91c.75 20.07-19.17 29-35.36 19.24-18.45-11.11-32.8-24.51-48.47-38.39-7.13-6.32-14.51-11.77-22.01-17.38a.78.76-43.8 0 0-.9-.01c-8.68 6.15-14.99 12.27-23.86 20.84q-20.38 19.68-36.42 43.11-2.96 4.32-13.2 17.54-10.78 13.91-26.03 5.72M762 78.81q-1.96 1.32-7.92 6.02c-11.04 8.72-26.02 3.66-28.23-10.64M684.54 73q-.5 15.11-12.94 21.36c-4.6 2.31-8.86 1.84-14.16 1.71q-24.33-.59-59.11 1.05c-17.44.81-32.77-2.31-39.57-20.11a.61.61-22.4 0 0-.82-.34q-24.28 10.58-46.28 25.77c-10.58 7.31-24.48-.48-21.44-13.71q.71-3.12 5.34-10.13M164.93 705.98q7.08-2.6 10.83-8.31c6.34-9.64 3.39-22.23-7.09-27.7-3.52-1.84-8.14-2.19-12.23-2.89q-4.69-.81-9.1-2.56-19.1-7.59-38.06-15.54a.59.59-66.9 0 1-.31-.78c.99-2.24 2.34-4.75 2.6-7.05.88-7.58-5.49-14.19-11.66-17.45-8.16-4.32-20.55-4.12-29.59-2.44a1.7 1.7-11.9 0 1-1.97-1.28q-.78-3.31-.51-6.31a.69.68-4.1 0 1 .54-.61c3.36-.75 7.42-1.41 10.22-3.06 10.57-6.21 8.84-20.01-1.14-25.8a.55.54 27.4 0 1-.23-.7c13.99-29.55 32.91-56.38 56.37-79.14 6.94-6.73 16.13-12.45 14.88-23.62q-.8-7.19-6.87-11.84M152.9 403.83c15.17 13.56 33.32 4.6 36.09-14.29q4.47-30.42 6.79-41.04c9.08-41.69 21.77-83.22 40.08-121.85 5.9-12.44 8.52-27.15-9.6-30.47M506.3 332.13c11.89 4.67 24.57-3.24 26.36-15.7 2.93-20.41 1.53-40.79-2.59-62.69-2.51-13.33-19.33-18.17-27.26-6.77-3.72 5.34-4.67 14.84-5.38 21.86-1.32 13.06-2.98 24.35-4.51 39.1-1.11 10.7 3.36 20.25 13.38 24.2M714.88 278.43c-.54 16.59-6.26 63.83 18.04 66.89 13.48 1.7 21.73-5.34 24.35-17.77q.97-4.62.47-7.8-2.36-15.01-4.62-30.02c-1.63-10.76-5.05-30.29-16.21-33.93-8.07-2.63-17.2.86-20.33 8.85q-1.36 3.46-1.7 13.78M610.06 313.21c-.22-8.11-4.48-15.97-13.43-16.24-13.77-.42-18.84 16.67-19.23 27.21-.72 19.55 14.06 35.04 34.29 28.55 2.7-.86 5.74-2.65 8.62-3.91a.76.75 55.1 0 1 .81.15c7.97 7.62 19.97 10.24 30.19 7.6 9.78-2.53 15.41-13.57 13.16-23.06q-3.02-12.75-16.25-14.84a1.45 1.3-13.6 0 1-.84-.45c-1.82-2.1-3.45-4.88-5.26-6.56-10.4-9.63-20.94-4.48-31.37 1.92q-.67.41-.69-.37" vector-effect="non-scaling-stroke"/></g><path fill="#676767" d="m466 79.04-.44.38a1.28.67 79 0 0-.27.91c.75 20.07-19.17 29-35.36 19.24-18.45-11.11-32.8-24.51-48.47-38.39-7.13-6.32-14.51-11.77-22.01-17.38a.78.76-43.8 0 0-.9-.01c-8.68 6.15-14.99 12.27-23.86 20.84q-20.38 19.68-36.42 43.11-2.96 4.32-13.2 17.54-10.78 13.91-26.03 5.72c-10.56-11.05-3.32-25.84 3.15-36.82 16.35-27.74 38.79-52.03 63.48-72.52q8.59-7.13 20.79-14.67 11.43-7.07 23.22-1.45c31.08 14.83 52.86 38.75 84.79 57.4q8.78 5.13 10.92 15.66c.07.35.26.45.61.44ZM762 28.81v50q-1.96 1.32-7.92 6.02c-11.04 8.72-26.02 3.66-28.23-10.64 2.4-16.52 22.83-35.61 35.04-46.11a.54.49-40.5 0 1 .74.02q.26.32.37.71ZM684.54 73q-.5 15.11-12.94 21.36c-4.6 2.31-8.86 1.84-14.16 1.71q-24.33-.59-59.11 1.05c-17.44.81-32.77-2.31-39.57-20.11a.61.61-22.4 0 0-.82-.34q-24.28 10.58-46.28 25.77c-10.58 7.31-24.48-.48-21.44-13.71q.71-3.12 5.34-10.13c2.3-1.75 3.9-4.38 5.69-6.06 17.65-16.58 39.71-25.51 61.29-33.97 14.68-5.76 25.49 3.55 30.51 16.68a1.63 1.62-13.2 0 0 1.69 1.04c23.01-2.46 46.1-4.4 69.26-3.5 11.17.43 18.83 9.69 20.54 20.21Z"/><path fill="#fff" d="M466 79.04q14.63-1.25 29.56-.44-4.63 7.01-5.34 10.13c-3.04 13.23 10.86 21.02 21.44 13.71q22-15.19 46.28-25.77a.61.61-22.4 0 1 .82.34c6.8 17.8 22.13 20.92 39.57 20.11q34.78-1.64 59.11-1.05c5.3.13 9.56.6 14.16-1.71q12.44-6.25 12.94-21.36 20.56-.29 41.31 1.19c2.21 14.3 17.19 19.36 28.23 10.64q5.96-4.7 7.92-6.02V706l-597.07-.02q7.08-2.6 10.83-8.31c6.34-9.64 3.39-22.23-7.09-27.7-3.52-1.84-8.14-2.19-12.23-2.89q-4.69-.81-9.1-2.56-19.1-7.59-38.06-15.54a.59.59-66.9 0 1-.31-.78c.99-2.24 2.34-4.75 2.6-7.05.88-7.58-5.49-14.19-11.66-17.45-8.16-4.32-20.55-4.12-29.59-2.44a1.7 1.7-11.9 0 1-1.97-1.28q-.78-3.31-.51-6.31a.69.68-4.1 0 1 .54-.61c3.36-.75 7.42-1.41 10.22-3.06 10.57-6.21 8.84-20.01-1.14-25.8a.55.54 27.4 0 1-.23-.7c13.99-29.55 32.91-56.38 56.37-79.14 6.94-6.73 16.13-12.45 14.88-23.62q-.8-7.19-6.87-11.84 2.5-16.38 5.14-32.39c1.88-11.42 3.86-21.71 6.15-32.68 15.17 13.56 33.32 4.6 36.09-14.29q4.47-30.42 6.79-41.04c9.08-41.69 21.77-83.22 40.08-121.85 5.9-12.44 8.52-27.15-9.6-30.47q3.44-6.56 4.11-9.85c1.16-5.75 2.96-7.9 5.41-12.38q.83-1.52 2.23-5.69c1.04-3.13 3.26-6.23 4.48-8.75q3.11-6.42 6.77-12.53c1.71-2.84 2.45-5.62 4.53-8.25q2.9-3.68 5.25-7.73 15.25 8.19 26.03-5.72 10.24-13.22 13.2-17.54 16.04-23.43 36.42-43.11c8.87-8.57 15.18-14.69 23.86-20.84a.78.76-43.8 0 1 .9.01c7.5 5.61 14.88 11.06 22.01 17.38 15.67 13.88 30.02 27.28 48.47 38.39 16.19 9.76 36.11.83 35.36-19.24a1.28.67 79 0 1 .27-.91l.44-.38Zm40.3 253.09c11.89 4.67 24.57-3.24 26.36-15.7 2.93-20.41 1.53-40.79-2.59-62.69-2.51-13.33-19.33-18.17-27.26-6.77-3.72 5.34-4.67 14.84-5.38 21.86-1.32 13.06-2.98 24.35-4.51 39.1-1.11 10.7 3.36 20.25 13.38 24.2Zm208.58-53.7c-.54 16.59-6.26 63.83 18.04 66.89 13.48 1.7 21.73-5.34 24.35-17.77q.97-4.62.47-7.8-2.36-15.01-4.62-30.02c-1.63-10.76-5.05-30.29-16.21-33.93-8.07-2.63-17.2.86-20.33 8.85q-1.36 3.46-1.7 13.78Zm-104.82 34.78c-.22-8.11-4.48-15.97-13.43-16.24-13.77-.42-18.84 16.67-19.23 27.21-.72 19.55 14.06 35.04 34.29 28.55 2.7-.86 5.74-2.65 8.62-3.91a.76.75 55.1 0 1 .81.15c7.97 7.62 19.97 10.24 30.19 7.6 9.78-2.53 15.41-13.57 13.16-23.06q-3.02-12.75-16.25-14.84a1.45 1.3-13.6 0 1-.84-.45c-1.82-2.1-3.45-4.88-5.26-6.56-10.4-9.63-20.94-4.48-31.37 1.92q-.67.41-.69-.37Z"/><path fill="#676767" d="M226.26 196.18c18.12 3.32 15.5 18.03 9.6 30.47-18.31 38.63-31 80.16-40.08 121.85q-2.32 10.62-6.79 41.04c-2.77 18.89-20.92 27.85-36.09 14.29-6.64-7.8-7.07-17.31-5.92-27.39 6.83-59.54 31.23-118.61 63.43-170.01q5.81-9.28 15.85-10.25ZM506.3 332.13c-10.02-3.95-14.49-13.5-13.38-24.2 1.53-14.75 3.19-26.04 4.51-39.1.71-7.02 1.66-16.52 5.38-21.86 7.93-11.4 24.75-6.56 27.26 6.77 4.12 21.9 5.52 42.28 2.59 62.69-1.79 12.46-14.47 20.37-26.36 15.7ZM732.92 345.32c-24.3-3.06-18.58-50.3-18.04-66.89q.34-10.32 1.7-13.78c3.13-7.99 12.26-11.48 20.33-8.85 11.16 3.64 14.58 23.17 16.21 33.93q2.26 15.01 4.62 30.02.5 3.18-.47 7.8c-2.62 12.43-10.87 19.47-24.35 17.77ZM610.06 313.21q.02.78.69.37c10.43-6.4 20.97-11.55 31.37-1.92 1.81 1.68 3.44 4.46 5.26 6.56a1.45 1.3-13.6 0 0 .84.45q13.23 2.09 16.25 14.84c2.25 9.49-3.38 20.53-13.16 23.06-10.22 2.64-22.22.02-30.19-7.6a.76.75 55.1 0 0-.81-.15c-2.88 1.26-5.92 3.05-8.62 3.91-20.23 6.49-35.01-9-34.29-28.55.39-10.54 5.46-27.63 19.23-27.21 8.95.27 13.21 8.13 13.43 16.24ZM141.61 468.9q6.07 4.65 6.87 11.84c1.25 11.17-7.94 16.89-14.88 23.62-23.46 22.76-42.38 49.59-56.37 79.14a.55.54 27.4 0 0 .23.7c9.98 5.79 11.71 19.59 1.14 25.8-2.8 1.65-6.86 2.31-10.22 3.06a.69.68-4.1 0 0-.54.61q-.27 3 .51 6.31a1.7 1.7-11.9 0 0 1.97 1.28c9.04-1.68 21.43-1.88 29.59 2.44 6.17 3.26 12.54 9.87 11.66 17.45-.26 2.3-1.61 4.81-2.6 7.05a.59.59-66.9 0 0 .31.78q18.96 7.95 38.06 15.54 4.41 1.75 9.1 2.56c4.09.7 8.71 1.05 12.23 2.89 10.48 5.47 13.43 18.06 7.09 27.7q-3.75 5.71-10.83 8.31l-10.99.02q-9.31-1.47-15.95-4.22-31.35-12.97-62.38-26.69-5.53-2.45-12.98-6.6a2.34 2.28 54.1 0 0-1.52-.26q-18.4 3.13-36.87 4.96c-9.7.95-22.01-2.59-20.98-14.79 1.02-12.03 16.34-21.88 26.82-25.88a1.57 1.55-14.8 0 0 1-1.69l-1.35-8.7q-.43-2.8-3.24-2.07c-6.64 1.73-17.18 4.14-22.27-1.69-7.16-8.19-1.03-16.97 6.92-21.92q10.84-6.75 23.18-9.48a1 .99 3.1 0 0 .73-.65c1.88-5.32 3.92-10.54 6.55-15.64 15.98-31.09 36.61-60.48 61.73-85.45q9.5-9.43 18.23-15.21 9.23-6.1 20.05-1.12Z"/></svg>